HIERARCHY
ROOT root
{
	OFFSET 0.000000 0.000000 0.000000
	CHANNELS 6 Xposition Yposition Zposition Zrotation Yrotation Xrotation
	JOINT lhip
	{
		OFFSET 0.058581 -0.082280 -0.017664
		CHANNELS 3 Zrotation Yrotation Xrotation
		JOINT lknee
		{
			OFFSET 0.043451 -0.386469 0.008037
			CHANNELS 3 Zrotation Yrotation Xrotation
			JOINT lankle
			{
				OFFSET -0.014790 -0.426874 -0.037428
				CHANNELS 3 Zrotation Yrotation Xrotation
				JOINT ltoe
				{
					OFFSET 0.041054 -0.060286 0.122042
					CHANNELS 3 Zrotation Yrotation Xrotation
					End Site
					{
						OFFSET 0.000000 0.000000 0.000000
					}
				}
			}
		}
	}
	JOINT rhip
	{
		OFFSET -0.060310 -0.090513 -0.013543
		CHANNELS 3 Zrotation Yrotation Xrotation
		JOINT rknee
		{
			OFFSET -0.043257 -0.383688 -0.004843
			CHANNELS 3 Zrotation Yrotation Xrotation
			JOINT rankle
			{
				OFFSET 0.019056 -0.420046 -0.034562
				CHANNELS 3 Zrotation Yrotation Xrotation
				JOINT rtoe
				{
					OFFSET -0.034840 -0.062106 0.130323
					CHANNELS 3 Zrotation Yrotation Xrotation
					End Site
					{
						OFFSET 0.000000 0.000000 0.000000
					}
				}
			}
		}
	}
	JOINT lowerback
	{
		OFFSET 0.004439 0.124404 -0.038385
		CHANNELS 3 Zrotation Yrotation Xrotation
		JOINT upperback
		{
			OFFSET 0.004488 0.137956 0.026820
			CHANNELS 3 Zrotation Yrotation Xrotation
			JOINT chest
			{
				OFFSET -0.002265 0.056032 0.002855
				CHANNELS 3 Zrotation Yrotation Xrotation
				JOINT lowerneck
				{
					OFFSET -0.013390 0.211636 -0.033468
					CHANNELS 3 Zrotation Yrotation Xrotation
					JOINT upperneck
					{
						OFFSET 0.010113 0.088937 0.050410
						CHANNELS 3 Zrotation Yrotation Xrotation
						End Site
						{
							OFFSET 0.000000 0.000000 0.000000
						}
					}
				}
				JOINT lclavicle
				{
					OFFSET 0.071702 0.114000 -0.018898
					CHANNELS 3 Zrotation Yrotation Xrotation
					JOINT lshoulder
					{
						OFFSET 0.122921 0.045205 -0.019046
						CHANNELS 3 Zrotation Yrotation Xrotation
						JOINT lelbow
						{
							OFFSET 0.255332 -0.015649 -0.022946
							CHANNELS 3 Zrotation Yrotation Xrotation
							JOINT lwrist
							{
								OFFSET 0.265709 0.012698 -0.007375
								CHANNELS 3 Zrotation Yrotation Xrotation
								End Site
								{
									OFFSET 0.000000 0.000000 0.000000
								}
							}
						}
					}
				}
				JOINT rclavicle
				{
					OFFSET -0.082954 0.112472 -0.023707
					CHANNELS 3 Zrotation Yrotation Xrotation
					JOINT rshoulder
					{
						OFFSET -0.113228 0.046853 -0.008472
						CHANNELS 3 Zrotation Yrotation Xrotation
						JOINT relbow
						{
							OFFSET -0.260127 -0.014369 -0.031269
							CHANNELS 3 Zrotation Yrotation Xrotation
							JOINT rwrist
							{
								OFFSET -0.269108 0.006794 -0.006027
								CHANNELS 3 Zrotation Yrotation Xrotation
								End Site
								{
									OFFSET 0.000000 0.000000 0.000000
								}
							}
						}
					}
				}
			}
		}
	}
}
MOTION
Frames: 16
Frame Time: 0.033333
-1.941881 0.323793 1.031792 82.898633 -0.256769 88.269455 2.120160 1.576209 7.295998 -4.142605 -7.694523 -0.873151 1.588281 10.845722 -7.937188 0.000000 -0.000000 0.000000 -4.287209 -3.174229 -1.121439 2.741275 1.112181 11.556164 7.120719 -5.955543 -8.147948 0.000000 -0.000000 0.000000 -1.233586 0.805666 -2.837449 1.816032 -2.780649 7.085786 -0.343503 -1.209802 4.333515 9.860804 -14.843971 11.785048 11.709304 -15.155576 5.753395 -17.353533 12.721682 6.966846 -51.646820 3.013439 11.502078 -4.414554 -46.634360 21.228475 1.358317 -4.418060 -7.525798 17.185936 -5.918896 6.505198 42.111021 -4.040772 11.141662 2.895760 39.397896 19.793336 11.768804 2.559824 -2.138992 
-1.943914 0.322089 1.032056 82.156067 -0.191660 87.805315 2.287096 1.784526 7.957717 -4.123213 -7.424253 -1.215862 1.452192 10.901099 -8.032079 0.000000 -0.000000 0.000000 -4.096299 -2.851028 -0.858084 2.686673 1.329492 11.653720 6.850343 -5.749635 -8.225456 0.000000 -0.000000 0.000000 -1.529438 0.906823 -2.327524 2.449648 -2.212228 6.886892 -0.081020 -1.097004 4.803235 10.324225 -16.140128 12.823994 11.018801 -16.913453 9.021020 -17.935231 13.018167 6.661874 -53.196402 0.807475 11.123536 0.729499 -43.473787 14.293496 1.492443 -3.617785 -10.795611 18.343750 -5.437729 5.570023 42.215183 -1.618798 10.406259 -1.154203 34.568872 13.724213 10.665086 2.250656 -3.236767 
-1.946788 0.321166 1.032328 82.394660 0.000103 87.244384 2.535052 1.457894 8.258592 -4.133673 -7.293296 -1.016505 1.562978 10.709198 -8.122110 0.000000 -0.000000 0.000000 -3.813820 -2.802876 -0.388063 2.671454 1.126075 11.631815 6.790678 -5.742840 -8.070605 0.000000 -0.000000 0.000000 -1.243215 0.786810 -1.658499 2.911796 -2.474984 7.191053 0.020938 -1.065860 4.931653 10.300624 -16.910102 13.600545 10.453673 -17.826123 10.961994 -18.406726 12.916306 6.518157 -54.514547 -0.955826 10.345918 4.477915 -41.236108 8.345649 1.441368 -3.452031 -14.130315 19.157962 -4.708664 5.194069 42.636268 0.552855 9.513171 -4.847243 31.418459 8.779062 9.287070 1.750155 -3.095536 
-1.949405 0.320137 1.032761 82.281211 -0.070543 86.757471 2.470848 1.417477 8.600335 -4.087396 -7.115167 -0.888239 1.676642 10.569703 -8.182559 0.000000 -0.000000 0.000000 -3.834567 -2.682437 -0.082255 2.671089 0.995793 11.734198 6.452534 -5.571269 -8.076215 0.000000 -0.000000 0.000000 -0.955743 0.864366 -0.860945 3.314967 -2.529217 7.419142 0.235536 -1.035480 4.914175 10.393171 -17.401940 14.173872 9.919631 -18.356924 11.767623 -18.757636 12.706520 6.643571 -55.616949 -2.119036 9.811133 7.256476 -40.530124 4.755629 1.688197 -3.150287 -16.429169 19.896830 -3.866045 4.994105 43.544432 2.701569 8.464876 -8.542710 28.626740 3.849546 6.802378 1.654192 -3.254001 
-1.951838 0.319670 1.033093 82.249269 -0.170910 86.509041 2.389995 1.388346 8.580710 -4.101768 -6.936739 -0.614663 1.678457 10.438268 -8.211103 0.000000 -0.000000 0.000000 -3.864396 -2.563024 -0.099818 2.610322 0.861969 11.943778 6.307228 -5.474546 -8.097618 0.000000 -0.000000 0.000000 -0.711385 0.767547 -0.350135 3.524126 -2.610168 7.617338 0.303932 -0.935824 4.966078 10.462185 -17.328608 14.003923 9.599265 -18.631684 12.072156 -18.750084 12.334183 6.672311 -56.180301 -2.467762 9.809396 8.291735 -40.671703 4.044511 2.265520 -3.081563 -16.735180 20.318630 -3.204486 4.897153 44.043888 3.840462 7.919505 -10.403980 27.608285 1.106922 5.522838 1.476917 -3.762634 
-1.954546 0.319215 1.033660 82.113140 -0.323585 86.439849 2.313689 1.684576 8.401773 -4.141879 -6.830197 -0.405719 1.623811 10.112530 -8.228376 0.000000 -0.000000 0.000000 -3.917792 -2.673416 -0.369185 2.460251 0.789853 12.168299 6.010998 -5.175301 -8.090635 0.000000 -0.000000 0.000000 -0.201999 0.682398 0.250368 3.803771 -2.647256 7.693341 0.348835 -0.728572 4.800996 10.454491 -17.260910 13.860042 9.206450 -18.872654 12.121890 -18.987240 12.040042 6.589316 -56.218617 -2.538414 10.063464 8.465187 -41.612858 4.473422 3.265984 -3.296072 -16.298257 20.812674 -2.415591 4.841189 44.535062 5.000411 7.373321 -11.884212 26.396281 -1.852398 3.864022 1.451890 -4.865994 
-1.957247 0.319165 1.034307 82.313593 -0.531919 86.339078 2.139245 1.610684 8.388958 -4.192254 -6.702651 -0.505246 1.556652 9.881511 -8.168670 0.000000 -0.000000 0.000000 -4.051868 -2.375970 -0.355230 2.404711 0.504403 12.073168 5.792115 -5.359371 -8.242812 0.000000 -0.000000 0.000000 0.240690 0.693801 0.891145 4.219010 -2.652556 7.771271 0.487541 -0.587423 4.611645 10.606297 -17.161676 13.429825 8.715317 -19.362064 12.209710 -19.135783 11.404159 6.706096 -56.255488 -2.585521 10.617734 8.369079 -42.938712 5.794651 2.957619 -3.320747 -15.151167 21.335107 -1.464453 5.033842 44.746169 5.745351 6.974512 -13.098108 25.478715 -4.095607 2.947773 1.380504 -5.608162 
-1.959881 0.318981 1.034982 82.509090 -0.558683 86.427473 2.109559 1.513272 8.268221 -4.173253 -6.982340 -0.835556 2.250975 10.407000 -6.772047 0.000000 -0.000000 0.000000 -3.917943 -2.085528 -0.086718 2.974768 2.530505 11.052248 3.966754 -8.276695 -7.634287 0.000000 -0.000000 0.000000 1.073666 0.522802 1.167187 4.528266 -2.496039 8.622882 0.726847 -0.903974 3.407162 8.326001 -19.248796 13.887107 8.809687 -16.646369 13.407876 -19.655664 10.515548 8.039012 -55.917747 -2.102885 9.277569 6.875125 -45.361583 9.653249 5.482800 -2.911113 -16.246712 21.602719 0.152524 6.837712 44.765137 6.846213 6.486286 -13.894630 24.289631 -4.947494 2.289300 1.905630 -6.922734 
-1.963011 0.318522 1.035519 83.004959 -0.733379 86.680535 1.979266 1.386937 7.787883 -4.192319 -7.087417 -0.869638 2.157073 10.249280 -6.677125 0.000000 -0.000000 0.000000 -4.008923 -2.169686 -0.490329 2.895197 2.161343 11.060471 3.861406 -8.300827 -7.632078 0.000000 -0.000000 0.000000 1.531365 0.400765 1.788524 5.016427 -2.515144 8.277790 1.022237 -0.816081 3.165509 8.342014 -19.121753 13.320982 8.417611 -16.985090 13.251621 -19.510399 10.367551 8.041747 -56.189452 -2.292188 9.964908 5.788132 -46.400812 11.841365 4.894664 -3.348736 -15.986460 22.000838 0.613869 6.772342 44.321927 7.712422 6.423930 -13.393834 23.109391 -4.673556 2.210700 1.672179 -6.335597 
-1.966544 0.317519 1.036073 83.927878 -1.065257 86.952649 1.807265 1.281313 7.306212 -4.263636 -7.237224 -1.164814 1.992418 9.832101 -6.320950 0.000000 -0.000000 0.000000 -4.257510 -2.306577 -0.861561 2.868672 1.600658 10.992099 3.552691 -8.522173 -7.648789 0.000000 -0.000000 0.000000 1.828923 0.343461 2.038357 5.664233 -2.745606 8.430346 1.511062 -0.923687 2.980341 8.375126 -18.987027 12.530505 7.966837 -17.298419 12.922444 -19.493420 9.983622 8.373714 -56.478259 -2.485745 10.724887 5.051563 -48.293871 13.209317 3.636315 -3.482182 -15.947126 22.609352 1.468084 6.882238 43.610768 8.929314 6.279974 -12.844336 21.335640 -4.603554 3.402544 1.714471 -4.882190 
-1.969114 0.315909 1.036675 84.781119 -1.308828 87.065574 1.720893 1.197678 6.944624 -4.261887 -7.376331 -1.186999 1.763804 9.374509 -6.057339 0.000000 -0.000000 0.000000 -4.348346 -2.515408 -0.927751 2.752690 1.159972 10.813303 3.337971 -8.653752 -7.617187 0.000000 -0.000000 0.000000 1.894559 0.314347 2.533953 6.217692 -2.927045 8.254761 1.971752 -0.998613 2.837448 8.535327 -18.694719 11.645043 7.737660 -17.540352 12.404010 -19.335095 9.784289 8.395986 -56.735375 -2.666413 11.393992 3.799233 -49.330876 15.406322 3.050509 -3.715328 -16.188050 23.069218 1.739460 6.507022 43.430429 9.632792 6.328439 -12.688491 20.250067 -4.619757 3.731851 1.312141 -3.994638 
-1.971873 0.314094 1.037100 86.024571 -1.556466 87.097378 1.608586 0.871996 6.352267 -4.265999 -7.638598 -0.751389 1.462513 8.868363 -5.993263 0.000000 -0.000000 0.000000 -4.448350 -2.748482 -0.788519 2.620785 0.423840 10.498141 2.896522 -8.865652 -7.677851 0.000000 -0.000000 0.000000 2.072454 0.216733 3.031264 6.621780 -3.378142 8.261949 2.249729 -1.255832 2.747725 8.753968 -18.082356 10.198235 7.443672 -17.555320 11.438721 -19.250000 9.539557 8.671025 -56.748019 -2.774658 11.834044 3.109490 -50.927361 16.401594 2.915662 -4.132946 -16.479068 23.459554 1.935191 6.113026 43.644460 10.403397 6.317051 -12.694519 19.557549 -5.317777 3.909820 1.169593 -4.080529 
-1.974225 0.311241 1.037496 86.962792 -1.822989 87.170343 1.481905 0.788153 5.866301 -4.221603 -8.132780 -0.444123 1.258640 8.668868 -5.889013 0.000000 -0.000000 0.000000 -4.461753 -2.963223 -0.821805 2.454458 -0.032001 10.411622 2.792613 -9.013951 -7.636714 0.000000 -0.000000 0.000000 2.242277 0.059751 3.541199 6.801408 -3.795361 8.228352 2.418917 -1.267152 2.534426 8.726930 -17.159994 8.804909 7.152170 -17.127021 9.453747 -19.302113 9.320808 8.467810 -56.278124 -2.413981 12.247529 1.860294 -52.294800 17.944782 3.221204 -3.646216 -17.336493 24.014320 2.240289 5.857164 44.151906 10.877648 6.525499 -12.845403 19.140867 -6.240067 2.800090 0.831787 -4.590509 
-1.977192 0.308058 1.037924 87.958143 -2.074567 87.203033 1.243867 0.449068 4.925412 -4.128965 -8.358629 0.727163 1.039074 8.399289 -6.184087 0.000000 -0.000000 0.000000 -4.411100 -2.953199 -0.995781 2.231739 -0.739755 10.647309 2.745403 -9.154116 -7.788192 0.000000 -0.000000 0.000000 2.387008 -0.146848 4.232060 6.959133 -4.112870 8.151262 2.534354 -1.300352 2.347436 8.465898 -15.842620 6.773307 6.459568 -16.732860 7.085649 -19.452326 9.040548 8.067217 -55.723171 -2.284578 12.607984 0.828766 -53.154441 19.132356 2.474891 -4.241692 -17.547552 24.409867 2.490034 5.429194 44.988205 11.174952 6.988881 -13.337828 18.995154 -7.349822 2.977051 0.854730 -5.114068 
-1.979852 0.304335 1.038041 88.425868 -2.269730 87.382408 1.089128 0.087087 3.782779 -4.119723 -8.158983 2.201536 1.002435 8.287141 -6.565097 0.000000 -0.000000 0.000000 -4.300394 -3.000928 -1.231105 2.103430 -1.029596 10.593343 2.891425 -9.064954 -7.754021 0.000000 -0.000000 0.000000 2.509486 -0.067469 4.724127 6.973399 -4.193528 7.930244 2.660465 -1.248923 2.250937 7.703945 -14.771572 5.132194 5.691016 -16.056293 4.475198 -19.689350 8.505489 7.681471 -55.333858 -2.256241 12.805606 0.415924 -53.272777 19.537203 1.978339 -4.076730 -17.654917 24.874823 2.906425 5.187635 45.744673 11.055273 7.535740 -13.707363 19.228343 -8.118421 3.071421 0.640180 -5.347545 
-1.981936 0.300692 1.038325 88.912655 -2.453956 87.431469 0.893520 -0.076500 2.605687 -4.076669 -8.094782 4.022908 1.008967 8.154826 -6.967972 0.000000 -0.000000 0.000000 -4.210801 -3.154010 -1.298943 1.961937 -1.456513 10.633959 2.696376 -8.886657 -7.869846 0.000000 -0.000000 0.000000 2.633296 -0.062650 5.342164 6.820159 -4.314208 7.761830 2.719885 -1.106236 2.080526 6.877098 -13.663827 3.352374 4.867543 -15.363977 1.776803 -20.112391 8.060383 6.842251 -54.934902 -2.093689 12.915167 0.324996 -52.975338 19.806903 1.641775 -4.115425 -17.335917 25.262286 3.295542 5.167444 46.482681 11.184030 7.930242 -13.475842 19.092743 -8.352183 2.751397 0.940793 -5.275356 
